<svg fill="#e9e9e9" xmlns="http://www.w3.org/2000/svg"  viewBox="0 0 48 48" width="48px" height="48px"><path d="M 13.5 6 C 9.3754991 6 6 9.3754991 6 13.5 L 6 34.5 C 6 38.624501 9.3754991 42 13.5 42 L 34.5 42 C 38.624501 42 42 38.624501 42 34.5 L 42 13.5 C 42 9.3754991 38.624501 6 34.5 6 L 13.5 6 z M 18.5 14 C 20.86 14 22.920547 15.250859 24.060547 17.130859 C 20.440547 17.740859 17.590078 20.660547 17.080078 24.310547 C 16.190078 24.620547 15.380469 25.129062 14.730469 25.789062 C 13.080469 24.619062 12 22.69 12 20.5 C 12 16.91 14.91 14 18.5 14 z M 25.5 19 C 28.203 19 30.52 20.651 31.5 23 C 34.538 23 37 25.463 37 28.5 C 37 31.538 34.538 34 31.5 34 L 19.5 34 L 19.5 33.949219 C 19.334 33.969219 19.171 34 19 34 C 16.791 34 15 32.209 15 30 C 15 27.791 16.791 26 19 26 C 19.009 26 19.017391 26.003906 19.025391 26.003906 C 19.013391 25.836906 19 25.67 19 25.5 C 19 21.91 21.91 19 25.5 19 z"/></svg>